<svg width="32" height="32" viewBox="0 0 32 32" fill="none" xmlns="http://www.w3.org/2000/svg">
<path d="M0 8C0 3.58172 3.58172 0 8 0H24C28.4183 0 32 3.58172 32 8V24C32 28.4183 28.4183 32 24 32H8C3.58172 32 0 28.4183 0 24V8Z" fill="#18181B"/>
<path d="M10.9543 7.34201L5.95 16L6.78117 17.4373L11.7855 8.77924H16.7725L21.7768 17.4373L22.608 16L17.621 7.34201H10.9543Z" fill="#FAFAFA"/>
<path d="M10.9543 18.8918H12.6167L15.9413 13.1082L19.2833 18.8918H20.9457L15.9413 10.2338L10.9543 18.8918Z" fill="#FAFAFA"/>
<path d="M12.6167 10.2338L7.61233 18.8918L10.9543 24.658H20.9457L21.7768 23.2208H11.7855L9.27467 18.8918L14.279 10.2338H12.6167Z" fill="#FAFAFA"/>
<path d="M19.2833 7.34201L24.2703 16L21.7768 20.329H11.7855L12.6167 21.7663H22.608L25.95 16L20.9457 7.34201H19.2833Z" fill="#FAFAFA"/>
</svg>
