<svg width="32" height="32" viewBox="0 0 32 32" fill="none" xmlns="http://www.w3.org/2000/svg">
<path d="M0 10C0 4.47715 4.47715 0 10 0H22C27.5228 0 32 4.47715 32 10V22C32 27.5228 27.5228 32 22 32H10C4.47715 32 0 27.5228 0 22V10Z" fill="#244B5A"/>
<path d="M21.3327 16.1947L20.668 17.3333L16.6621 10.472H12.6706L8.66471 17.3333L8 16.1947L12.0052 9.33333H17.3411L21.3327 16.1947Z" fill="#93D500"/>
<path d="M20 18H18.6686L15.9928 13.5469L13.3307 18H12L15.9928 11.3333L20 18Z" fill="white"/>
<path d="M10.6628 18.1361L12.6719 21.5371H20.666L20.0013 22.6667H12.0072L9.33333 18.1361L13.3372 11.3333H14.6673L10.6628 18.1361Z" fill="#93D500"/>
<path d="M19.9954 9.33333L23.9993 16.1361L21.3255 20.6667H13.3314L12.6667 19.5371H20.6608L22.6556 16.1361L18.6654 9.33333H19.9954Z" fill="#93D500"/>
</svg>
