<svg width="69" height="31" viewBox="0 0 69 31" fill="none" xmlns="http://www.w3.org/2000/svg">
<path d="M9.62827 28.0647H5.97524V19.8933C5.97524 19.2808 5.88653 18.8859 5.70912 18.7086C5.59623 18.5958 5.3785 18.5394 5.05593 18.5394C4.73337 18.5394 4.33823 18.7812 3.87051 19.2647V28.0647H0.169101V13.8251C0.169101 12.6486 0.112653 11.7057 -0.000244141 10.9965L3.65278 10.5372C3.79794 11.3914 3.87051 12.439 3.87051 13.6801V15.2031C3.87051 15.6383 3.86245 15.9768 3.84632 16.2185C4.10437 15.9445 4.48338 15.7189 4.98336 15.5416C5.48333 15.3643 6.01556 15.2757 6.58004 15.2757C7.38645 15.2757 8.04771 15.4691 8.56381 15.8559C9.27345 16.4039 9.62827 17.2017 9.62827 18.2493V28.0647Z" fill="black"/>
<path d="M23.1237 15.59L22.2769 18.9746C21.9221 18.7489 21.5592 18.6361 21.1883 18.6361C20.898 18.6361 20.648 18.7167 20.4383 18.8779C20.2125 19.039 20.0432 19.2566 19.9303 19.5306V28.0647H16.2289V19.3372C16.2289 18.1284 16.116 17.0002 15.8902 15.9526L19.2529 15.2998C19.4142 15.7834 19.4948 16.2749 19.4948 16.7746C20.1561 15.7431 20.906 15.2273 21.7447 15.2273C22.1802 15.2273 22.6398 15.3482 23.1237 15.59Z" fill="black"/>
<path d="M33.164 21.513C33.164 23.4471 32.7769 25.0105 32.0027 26.2032C31.0512 27.6537 29.7125 28.379 27.9868 28.379C26.1966 28.379 24.858 27.6618 23.9709 26.2273C23.2774 25.1152 22.9306 23.6647 22.9306 21.8757C22.9306 19.8449 23.3984 18.2332 24.3338 17.0405C25.2531 15.8639 26.5111 15.2757 28.1078 15.2757C29.8819 15.2757 31.2044 15.9204 32.0753 17.2097C32.8011 18.2735 33.164 19.7079 33.164 21.513ZM29.1964 21.3922C29.1964 19.8449 29.0513 18.8698 28.761 18.4669C28.5997 18.2412 28.3578 18.1284 28.0352 18.1284C27.7126 18.1284 27.4627 18.2976 27.2852 18.6361C27.0272 19.1519 26.8982 20.2559 26.8982 21.9482C26.8982 23.0119 26.9385 23.8097 27.0191 24.3416C27.0998 24.8574 27.2691 25.2039 27.5272 25.3812C27.6723 25.4779 27.8497 25.5262 28.0594 25.5262C28.3013 25.5262 28.4949 25.4376 28.64 25.2603C29.011 24.8251 29.1964 23.5357 29.1964 21.3922Z" fill="black"/>
<path fill-rule="evenodd" clip-rule="evenodd" d="M15.0331 12.302C15.0331 11.7218 14.8235 11.2222 14.4041 10.8031C14.0009 10.3841 13.501 10.1746 12.9042 10.1746C12.2914 10.1746 11.7672 10.3841 11.3317 10.8031C10.8963 11.2222 10.6785 11.7218 10.6785 12.302C10.6785 12.8823 10.8882 13.3819 11.3075 13.8009C11.743 14.22 12.251 14.4295 12.8317 14.4295C13.4284 14.4295 13.9445 14.22 14.38 13.8009C14.8154 13.3819 15.0331 12.8823 15.0331 12.302Z" fill="#31A05C"/>
<path d="M14.7186 28.0647H11.0172V15.7834L14.7186 15.3965V28.0647Z" fill="black"/>
<ellipse cx="41.5457" cy="27.3111" rx="0.511888" ry="1.19556" transform="rotate(-45.0788 41.5457 27.3111)" fill="#414244"/>
<ellipse cx="43.7425" cy="29.6001" rx="0.550123" ry="1.19556" transform="rotate(-46.607 43.7425 29.6001)" fill="#414244"/>
<ellipse cx="44.5794" cy="27.6851" rx="0.838777" ry="1.19556" transform="rotate(-49.8434 44.5794 27.6851)" fill="#5D6062"/>
<ellipse cx="47.1143" cy="29.5013" rx="0.838777" ry="1.19556" transform="rotate(-54.0244 47.1143 29.5013)" fill="#31A05C"/>
<ellipse cx="44.7111" cy="25.0099" rx="1.17725" ry="1.19556" transform="rotate(-30.0717 44.7111 25.0099)" fill="#77797C"/>
<ellipse cx="48.2163" cy="24.775" rx="1.24017" ry="1.19556" transform="rotate(-30.0717 48.2163 24.775)" fill="#77797C"/>
<ellipse cx="51.4686" cy="24.2775" rx="1.23988" ry="1.21089" transform="rotate(-30.0717 51.4686 24.2775)" fill="#77797C"/>
<ellipse cx="50.8667" cy="27.3439" rx="1.25195" ry="1.15476" transform="rotate(-30.0717 50.8667 27.3439)" fill="#5D6062"/>
<ellipse cx="56.4633" cy="27.544" rx="1.13611" ry="0.923592" transform="rotate(-36.8515 56.4633 27.544)" fill="#5D6062"/>
<ellipse cx="61.6149" cy="27.9292" rx="1.25327" ry="0.77466" transform="rotate(-35.2171 61.6149 27.9292)" fill="#3BA160"/>
<ellipse cx="60.2223" cy="25.8135" rx="1.16872" ry="0.947182" transform="rotate(-55.2416 60.2223 25.8135)" fill="#6F716E"/>
<ellipse cx="63.0108" cy="25.0946" rx="1.06848" ry="0.729283" transform="rotate(-51.4315 63.0108 25.0946)" fill="#414244"/>
<ellipse cx="65.2759" cy="24.3884" rx="1.06848" ry="0.729283" transform="rotate(-54.2198 65.2759 24.3884)" fill="#414244"/>
<ellipse cx="62.1721" cy="29.6013" rx="1.13028" ry="0.591931" transform="rotate(-29.6363 62.1721 29.6013)" fill="#404143"/>
<ellipse cx="64.3545" cy="28.166" rx="0.846916" ry="0.22934" transform="rotate(-46.7521 64.3545 28.166)" fill="#31A05C"/>
<ellipse cx="66.1308" cy="25.6108" rx="1.08128" ry="0.447863" transform="rotate(-55.4038 66.1308 25.6108)" fill="#3FAB61"/>
<ellipse cx="67.005" cy="22.6557" rx="1.08128" ry="0.447863" transform="rotate(-63.8673 67.005 22.6557)" fill="#31A05C"/>
<ellipse cx="53.5784" cy="29.0345" rx="1.25843" ry="1.16074" transform="rotate(-6.70193 53.5784 29.0345)" fill="#5D6062"/>
<ellipse cx="50.088" cy="29.697" rx="0.927631" ry="0.855618" transform="rotate(-0.177137 50.088 29.697)" fill="#414244"/>
<ellipse cx="42.5915" cy="22.1935" rx="1.17725" ry="1.19556" transform="rotate(-30.0717 42.5915 22.1935)" fill="#31A05C"/>
<ellipse cx="43.7008" cy="19.4579" rx="1.18752" ry="1.26105" transform="rotate(-30.0717 43.7008 19.4579)" fill="#929599"/>
<ellipse cx="46.962" cy="19.1542" rx="1.24552" ry="1.26105" transform="rotate(-30.0717 46.962 19.1542)" fill="#929599"/>
<ellipse cx="45.3541" cy="16.9149" rx="1.24552" ry="1.26105" transform="rotate(-30.0717 45.3541 16.9149)" fill="#9FA2A6"/>
<ellipse cx="41.0986" cy="18.7763" rx="1.17725" ry="1.19556" transform="rotate(-30.0717 41.0986 18.7763)" fill="#929599"/>
<ellipse cx="42.5889" cy="16.4256" rx="1.27838" ry="1.19556" transform="rotate(-82.289 42.5889 16.4256)" fill="#929599"/>
<ellipse cx="39.8556" cy="21.4597" rx="0.886756" ry="1.19556" transform="rotate(-4.73045 39.8556 21.4597)" fill="#77797C"/>
<ellipse cx="38.9637" cy="18.023" rx="0.874146" ry="1.27376" transform="rotate(-8.36266 38.9637 18.023)" fill="#77797C"/>
<ellipse cx="41.2056" cy="29.0111" rx="0.511888" ry="1.19556" transform="rotate(-45.0788 41.2056 29.0111)" fill="#414244"/>
<ellipse cx="39.5822" cy="24.4817" rx="0.511888" ry="1.19556" transform="rotate(-24.5803 39.5822 24.4817)" fill="#6D6D6D"/>
<ellipse cx="37.6676" cy="23.6536" rx="0.511888" ry="1.16974" transform="rotate(-25.9437 37.6676 23.6536)" fill="#414244"/>
<ellipse cx="36.3599" cy="20.3224" rx="0.471131" ry="1.2708" transform="rotate(-7.16914 36.3599 20.3224)" fill="#414244"/>
<ellipse cx="35.3425" cy="16.875" rx="0.452548" ry="1.17582" transform="rotate(1.59495 35.3425 16.875)" fill="#3FAB61"/>
<ellipse cx="36.4207" cy="14.0616" rx="0.465128" ry="1.11697" transform="rotate(1.59495 36.4207 14.0616)" fill="#6D6D6D"/>
<ellipse cx="37.9732" cy="14.7656" rx="0.711371" ry="1.1872" transform="rotate(1.59495 37.9732 14.7656)" fill="#77797C"/>
<ellipse cx="42.0334" cy="12.8903" rx="1.11431" ry="1.31243" transform="rotate(1.59495 42.0334 12.8903)" fill="#A5A8AC"/>
<ellipse cx="37.7407" cy="11.0332" rx="0.489714" ry="1.21493" transform="rotate(14.2642 37.7407 11.0332)" fill="#77797C"/>
<ellipse cx="39.9416" cy="9.21169" rx="0.744082" ry="1.26722" transform="rotate(20.0098 39.9416 9.21169)" fill="#31A05C"/>
<ellipse cx="42.0951" cy="9.66012" rx="0.986178" ry="1.12054" transform="rotate(46.3485 42.0951 9.66012)" fill="#A5A8AC"/>
<ellipse cx="44.9225" cy="8.03101" rx="1.14812" ry="1.24863" transform="rotate(-6.33772 44.9225 8.03101)" fill="#B4B6BD"/>
<ellipse cx="38.3974" cy="8.10734" rx="0.545567" ry="1.21493" transform="rotate(29.8223 38.3974 8.10734)" fill="#379555"/>
<ellipse cx="41.0071" cy="6.08934" rx="0.56478" ry="1.13214" transform="rotate(45.5111 41.0071 6.08934)" fill="#909090"/>
<ellipse cx="43.7277" cy="4.24947" rx="0.687937" ry="1.13214" transform="rotate(45.5111 43.7277 4.24947)" fill="#8F9390"/>
<ellipse cx="40.0053" cy="5.3343" rx="0.266395" ry="1.00959" transform="rotate(45.5111 40.0053 5.3343)" fill="#379555"/>
<ellipse cx="42.3749" cy="3.65207" rx="0.266395" ry="1.00959" transform="rotate(49.605 42.3749 3.65207)" fill="#737477"/>
<ellipse cx="45.2875" cy="2.27715" rx="0.350046" ry="1.15968" transform="rotate(58.1375 45.2875 2.27715)" fill="#77787B"/>
<ellipse cx="48.2225" cy="1.58802" rx="0.350046" ry="1.14956" transform="rotate(76.8885 48.2225 1.58802)" fill="#379555"/>
<ellipse cx="52.7378" cy="0.190596" rx="0.161841" ry="0.810438" transform="rotate(87.9594 52.7378 0.190596)" fill="#3FA266"/>
<ellipse cx="55.9123" cy="0.816536" rx="0.346648" ry="0.99955" transform="rotate(100.867 55.9123 0.816536)" fill="#3FA266"/>
<ellipse cx="58.5117" cy="1.38608" rx="0.148459" ry="0.643728" transform="rotate(116.768 58.5117 1.38608)" fill="#3FA266"/>
<ellipse cx="47.0768" cy="0.975" rx="0.18582" ry="0.798013" transform="rotate(74.8562 47.0768 0.975)" fill="#379555"/>
<ellipse cx="39.5755" cy="12.3185" rx="1.00351" ry="1.19337" transform="rotate(1.44989 39.5755 12.3185)" fill="#929599"/>
<ellipse cx="35.3335" cy="14.1383" rx="0.197475" ry="1.14468" transform="rotate(7.99176 35.3335 14.1383)" fill="#3FAB61"/>
<ellipse cx="36.1357" cy="22.8126" rx="0.205933" ry="1.02819" transform="rotate(-17.4357 36.1357 22.8126)" fill="#3FAB61"/>
<ellipse cx="39.214" cy="28.1219" rx="0.205933" ry="1.02819" transform="rotate(-43.1236 39.214 28.1219)" fill="#31A05C"/>
<ellipse cx="39.3362" cy="26.6907" rx="0.360105" ry="1.22135" transform="rotate(-35.3628 39.3362 26.6907)" fill="#31A05C"/>
<ellipse cx="35.271" cy="19.5982" rx="0.247212" ry="1.02819" transform="rotate(-2.84045 35.271 19.5982)" fill="#3FAB61"/>
<circle cx="48.1377" cy="15.6731" r="1.33518" fill="#A5A8AC"/>
<circle cx="50.062" cy="18.2578" r="1.33518" fill="#31A05C"/>
<circle cx="52.3877" cy="21.1001" r="1.33518" fill="#929599"/>
<circle cx="53.1338" cy="17.0222" r="1.33518" fill="#929599"/>
<circle cx="47.8506" cy="12.5722" r="1.33518" fill="#B4B6BD"/>
<circle cx="50.8083" cy="10.9927" r="1.33518" fill="#B4B6BD"/>
<circle cx="44.6633" cy="10.9207" r="1.17726" fill="#31A05C"/>
<circle cx="47.8364" cy="9.48536" r="1.17726" fill="#31A05C"/>
<circle cx="48.2672" cy="6.34122" r="1.13419" fill="#B4B6BD"/>
<circle cx="51.1238" cy="7.70539" r="1.23468" fill="#B4B6BD"/>
<ellipse cx="52.3731" cy="5.00645" rx="1.23468" ry="1.14854" fill="#D9D9D9"/>
<ellipse cx="52.3731" cy="5.00645" rx="1.23468" ry="1.14854" fill="#A5A8AC"/>
<ellipse cx="55.5034" cy="4.1873" rx="1.32083" ry="1.01933" fill="#929599"/>
<ellipse cx="57.8577" cy="6.35558" rx="1.32083" ry="1.14854" fill="#359357"/>
<circle cx="60.6569" cy="8.40856" r="1.22033" fill="#77797C"/>
<ellipse cx="49.6601" cy="3.97198" rx="1.19161" ry="1.09112" fill="#A5A8AC"/>
<ellipse cx="50.6363" cy="1.90485" rx="1.01933" ry="0.71784" fill="#909090"/>
<ellipse cx="53.2919" cy="1.05793" rx="1.17726" ry="0.416347" transform="rotate(-2.03235 53.2919 1.05793)" fill="#5D5F61"/>
<ellipse cx="58.5145" cy="3.82256" rx="1.19568" ry="0.585244" transform="rotate(9.52077 58.5145 3.82256)" fill="#359357"/>
<ellipse cx="60.8129" cy="5.86939" rx="1.25147" ry="0.771288" transform="rotate(44.8563 60.8129 5.86939)" fill="#77797C"/>
<ellipse cx="63.2914" cy="8.42987" rx="1.25147" ry="0.638984" transform="rotate(54.0193 63.2914 8.42987)" fill="#6D6D6D"/>
<ellipse cx="64.8567" cy="8.0816" rx="1.05932" ry="0.395554" transform="rotate(58.6359 64.8567 8.0816)" fill="#5D5F61"/>
<ellipse cx="66.1426" cy="8.32485" rx="0.918276" ry="0.344522" transform="rotate(62.0112 66.1426 8.32485)" fill="#3FA266"/>
<ellipse cx="64.1944" cy="5.78977" rx="0.985695" ry="0.41013" transform="rotate(53.1332 64.1944 5.78977)" fill="#3FA266"/>
<ellipse cx="55.9103" cy="2.22529" rx="1.05511" ry="0.727439" transform="rotate(12.171 55.9103 2.22529)" fill="#78797C"/>
<ellipse cx="58.5296" cy="2.2929" rx="1.03292" ry="0.336055" transform="rotate(15.6802 58.5296 2.2929)" fill="#D9D9D9"/>
<ellipse cx="58.5296" cy="2.2929" rx="1.03292" ry="0.336055" transform="rotate(15.6802 58.5296 2.2929)" fill="#5D5F61"/>
<ellipse cx="61.1461" cy="3.16495" rx="1.03292" ry="0.138673" transform="rotate(38.2554 61.1461 3.16495)" fill="#D9D9D9"/>
<ellipse cx="61.1461" cy="3.16495" rx="1.03292" ry="0.138673" transform="rotate(38.2554 61.1461 3.16495)" fill="#31A05C"/>
<ellipse cx="62.7272" cy="3.99839" rx="0.691339" ry="0.13503" transform="rotate(39.3578 62.7272 3.99839)" fill="#3FA266"/>
<ellipse cx="46.9922" cy="3.30162" rx="0.877615" ry="0.979213" transform="rotate(42.6778 46.9922 3.30162)" fill="#909090"/>
<ellipse cx="45.5097" cy="5.41136" rx="1.00627" ry="1.12276" transform="rotate(42.6778 45.5097 5.41136)" fill="#3BA160"/>
<circle cx="54.1102" cy="9.93025" r="1.30647" fill="#359357"/>
<circle cx="57.0106" cy="12.3138" r="1.30647" fill="#929599"/>
<circle cx="57.3839" cy="9.26966" r="1.3639" fill="#929599"/>
<circle cx="56.5222" cy="15.6013" r="1.32083" fill="#929599"/>
<circle cx="59.6377" cy="14.5388" r="1.32083" fill="#919398"/>
<circle cx="59.3504" cy="17.9561" r="1.32083" fill="#77797C"/>
<circle cx="62.1934" cy="16.721" r="1.23468" fill="#77797C"/>
<ellipse cx="64.9642" cy="15.6446" rx="0.933192" ry="1.1629" fill="#3BA160"/>
<ellipse cx="64.8396" cy="12.0745" rx="0.692921" ry="1.13233" transform="rotate(-11.745 64.8396 12.0745)" fill="#5E6062"/>
<ellipse cx="66.4771" cy="13.7965" rx="0.789765" ry="1.02717" transform="rotate(-5.86816 66.4771 13.7965)" fill="#5E6062"/>
<ellipse cx="67.2567" cy="11.4409" rx="0.350199" ry="1.13233" transform="rotate(-11.745 67.2567 11.4409)" fill="#5D5F61"/>
<ellipse cx="68.4037" cy="13.2726" rx="0.177945" ry="0.810219" transform="rotate(-6.9222 68.4037 13.2726)" fill="#3FA266"/>
<ellipse cx="67.9842" cy="15.293" rx="0.416033" ry="1.10362" transform="rotate(0.362376 67.9842 15.293)" fill="#404143"/>
<ellipse cx="67.9647" cy="19.0421" rx="0.403519" ry="1.07042" transform="rotate(6.20495 67.9647 19.0421)" fill="#31A05C"/>
<ellipse cx="66.3161" cy="20.5361" rx="0.629706" ry="1.07042" transform="rotate(32.3949 66.3161 20.5361)" fill="#414244"/>
<ellipse cx="68.766" cy="17.2201" rx="0.177945" ry="0.810219" transform="rotate(1.48303 68.766 17.2201)" fill="#3FA266"/>
<ellipse cx="68.2053" cy="20.9032" rx="0.177945" ry="0.810219" transform="rotate(19.7772 68.2053 20.9032)" fill="#3FA266"/>
<circle cx="62.7963" cy="13.7491" r="1.22033" fill="#77797C"/>
<circle cx="62.6385" cy="10.8492" r="1.22033" fill="#77797C"/>
<circle cx="54.6988" cy="22.9517" r="1.32083" fill="#77797C"/>
<circle cx="58.8335" cy="21.3728" r="1.32083" fill="#77797C"/>
<circle cx="57.9147" cy="24.4884" r="1.22033" fill="#3BA160"/>
<ellipse cx="64.0453" cy="22.1048" rx="1.22239" ry="1.10547" transform="rotate(-50.2795 64.0453 22.1048)" fill="#5E6062"/>
<ellipse cx="64.5211" cy="18.5604" rx="1.19206" ry="0.996921" transform="rotate(-90.7928 64.5211 18.5604)" fill="#5D6062"/>
<ellipse cx="54.0533" cy="26.2111" rx="1.23468" ry="1.19161" fill="#5D6062"/>
</svg>
